<svg width="800" height="223" viewBox="0 0 800 223" fill="none" xmlns="http://www.w3.org/2000/svg">
<g clip-path="url(#clip0_1296_697)">
<rect width="800" height="223" fill="white"/>
<path d="M794.904 202.109C794.904 205.093 794.315 208.048 793.172 210.805C792.029 213.562 790.354 216.066 788.242 218.175C786.13 220.284 783.624 221.956 780.865 223.096C778.106 224.236 775.15 224.821 772.165 224.818H28.0453C22.0142 224.824 16.2275 222.435 11.9579 218.177C7.68819 213.918 5.2852 208.139 5.27734 202.109V21.0156C5.2852 14.9833 7.68724 9.20074 11.956 4.93751C16.2249 0.674286 22.0115 -1.72109 28.0453 -1.72266H772.159C775.146 -1.72266 778.103 -1.13447 780.862 0.00830483C783.621 1.15108 786.128 2.82606 788.24 4.93758C790.351 7.0491 792.026 9.55579 793.169 12.3145C794.311 15.0732 794.898 18.0298 794.898 21.0156L794.904 202.109Z" fill="white"/>
<path d="M772.166 230.1H28.0463C20.6167 230.099 13.4911 227.151 8.23306 221.903C2.97506 216.655 0.0141366 209.536 0 202.109L0 21.0211C0.0109911 13.5897 2.96996 6.46615 8.22779 1.21304C13.4856 -4.04007 20.613 -6.99373 28.0463 -7L772.16 -7C779.593 -6.9906 786.718 -4.03593 791.975 1.2165C797.233 6.46893 800.192 13.5907 800.207 21.0211V202.109C800.218 217.548 787.616 230.1 772.166 230.1Z" fill="#A6A6A6"/>
<path d="M794.904 202.109C794.904 205.093 794.315 208.048 793.172 210.805C792.029 213.562 790.354 216.066 788.242 218.175C786.13 220.284 783.624 221.956 780.865 223.096C778.106 224.236 775.15 224.821 772.165 224.818H28.0453C22.0142 224.824 16.2275 222.435 11.9579 218.177C7.68819 213.918 5.2852 208.139 5.27734 202.109V21.0156C5.2852 14.9833 7.68724 9.20074 11.956 4.93751C16.2249 0.674286 22.0115 -1.72109 28.0453 -1.72266H772.159C775.146 -1.72266 778.103 -1.13447 780.862 0.00830483C783.621 1.15108 786.128 2.82606 788.24 4.93758C790.351 7.0491 792.026 9.55579 793.169 12.3145C794.311 15.0732 794.898 18.0298 794.898 21.0156L794.904 202.109Z" fill="black"/>
<path d="M178.679 110.304C178.507 91.1943 194.33 81.8974 195.053 81.4646C186.092 68.4027 172.202 66.618 167.321 66.4757C155.656 65.2484 144.34 73.4543 138.397 73.4543C132.336 73.4543 123.185 66.5943 113.322 66.7959C100.63 66.9915 88.7572 74.3377 82.2453 85.7454C68.8063 109.005 78.8292 143.187 91.7048 161.988C98.1455 171.202 105.672 181.477 115.522 181.116C125.16 180.724 128.76 174.979 140.39 174.979C151.913 174.979 155.294 181.116 165.34 180.884C175.684 180.724 182.195 171.635 188.411 162.344C195.854 151.796 198.843 141.396 198.962 140.863C198.724 140.78 178.88 133.202 178.679 110.304ZM159.7 54.1075C164.884 47.627 168.43 38.8103 167.446 29.8633C159.943 30.1953 150.561 35.0513 145.158 41.3895C140.378 46.9748 136.108 56.1294 137.211 64.7385C145.639 65.367 154.292 60.4873 159.7 54.1075Z" fill="white"/>
<path d="M772.167 -7H373.594L529.708 230.1H772.167C779.598 230.094 786.724 227.142 791.981 221.891C797.239 216.641 800.199 209.52 800.213 202.091V21.0211C800.201 13.5902 797.241 6.46754 791.984 1.21477C786.726 -4.038 779.6 -6.99216 772.167 -7Z" fill="url(#paint0_linear_1296_697)"/>
<path d="M318.272 179.792H304.803L297.426 156.615H271.781L264.753 179.792H251.641L277.054 100.887H292.746L318.272 179.792ZM295.202 146.891L288.53 126.287C287.824 124.182 286.495 119.226 284.55 111.423H284.313C283.53 114.779 282.279 119.736 280.565 126.287L274.005 146.891H295.202ZM383.498 150.644C383.498 160.32 380.871 167.969 375.61 173.584C370.901 178.582 365.048 181.078 358.067 181.078C350.529 181.078 345.109 178.392 341.817 173.009V202.862H329.173V141.596C329.173 135.519 329.013 129.287 328.704 122.896H339.824L340.53 131.914H340.767C344.984 125.119 351.383 121.722 359.971 121.722C366.684 121.722 372.289 124.372 376.773 129.679C381.25 134.997 383.498 141.982 383.498 150.644ZM370.617 151.107C370.617 145.569 369.371 141.003 366.868 137.404C364.134 133.663 360.463 131.789 355.861 131.789C352.741 131.789 349.907 132.833 347.374 134.89C344.836 136.966 343.175 139.675 342.398 143.031C342.051 144.286 341.854 145.578 341.811 146.879V156.372C341.811 160.504 343.08 163.997 345.619 166.854C348.157 169.7 351.454 171.129 355.511 171.129C360.273 171.129 363.98 169.285 366.631 165.627C369.288 161.957 370.617 157.119 370.617 151.107ZM448.955 150.644C448.955 160.32 446.328 167.969 441.067 173.584C436.353 178.582 430.505 181.078 423.518 181.078C415.981 181.078 410.56 178.392 407.268 173.009V202.862H394.624V141.596C394.624 135.519 394.464 129.287 394.156 122.896H405.276L405.981 131.914H406.219C410.429 125.119 416.829 121.722 425.422 121.722C432.13 121.722 437.734 124.372 442.23 129.679C446.702 134.997 448.955 141.982 448.955 150.644ZM436.068 151.107C436.068 145.569 434.816 141.003 432.314 137.404C429.58 133.663 425.92 131.789 421.318 131.789C418.199 131.789 415.364 132.833 412.819 134.89C410.281 136.966 408.626 139.675 407.85 143.031C407.464 144.596 407.256 145.871 407.256 146.879V156.372C407.256 160.504 408.532 163.997 411.058 166.854C413.596 169.694 416.894 171.129 420.962 171.129C425.731 171.129 429.437 169.285 432.082 165.627C434.739 161.957 436.068 157.119 436.068 151.107ZM522.14 157.658C522.14 164.376 519.792 169.837 515.124 174.052C509.988 178.653 502.818 180.96 493.625 180.96C485.133 180.96 478.324 179.323 473.188 176.045L476.112 165.508C481.657 168.793 487.748 170.43 494.379 170.43C499.147 170.43 502.854 169.351 505.499 167.21C508.15 165.064 509.49 162.194 509.49 158.613C509.49 155.405 508.381 152.719 506.204 150.531C504.016 148.35 500.398 146.316 495.316 144.448C481.497 139.296 474.582 131.76 474.582 121.846C474.582 115.372 477.025 110.071 481.9 105.927C486.775 101.788 493.24 99.7188 501.282 99.7188C508.464 99.7188 514.448 100.97 519.199 103.466L516.026 113.771C511.554 111.352 506.507 110.142 500.861 110.142C496.401 110.142 492.902 111.239 490.399 113.421C488.294 115.372 487.226 117.749 487.226 120.572C487.226 123.684 488.442 126.269 490.862 128.297C492.961 130.165 496.792 132.199 502.332 134.38C509.128 137.12 514.122 140.31 517.319 143.974C520.539 147.638 522.14 152.209 522.14 157.658ZM564.053 132.382H550.115V160.006C550.115 167.032 552.571 170.536 557.493 170.536C559.753 170.536 561.627 170.347 563.11 169.949L563.459 179.549C560.969 180.48 557.689 180.948 553.626 180.948C548.633 180.948 544.73 179.424 541.913 176.377C539.108 173.329 537.696 168.224 537.696 161.038V132.359H529.393V122.872H537.696V112.455L550.115 108.707V122.872H564.053V132.382ZM626.811 150.875C626.811 159.621 624.309 166.801 619.315 172.416C614.09 178.197 607.139 181.078 598.474 181.078C590.112 181.078 583.464 178.309 578.506 172.778C573.548 167.234 571.069 160.249 571.069 151.824C571.069 143.007 573.631 135.786 578.737 130.171C583.855 124.55 590.747 121.74 599.411 121.74C607.762 121.74 614.469 124.514 619.546 130.052C624.397 135.424 626.811 142.361 626.811 150.875ZM613.704 151.166C613.704 145.954 612.578 141.484 610.318 137.742C607.667 133.224 603.871 130.965 598.955 130.965C593.89 130.965 590.005 133.224 587.36 137.742C585.095 141.484 583.968 146.031 583.968 151.403C583.968 156.621 585.095 161.103 587.36 164.833C590.094 169.351 593.908 171.61 598.848 171.61C603.681 171.61 607.471 169.303 610.211 164.72C612.536 160.89 613.704 156.389 613.704 151.166ZM667.929 134.013C666.614 133.776 665.28 133.658 663.943 133.663C659.495 133.663 656.056 135.335 653.636 138.703C651.536 141.667 650.481 145.415 650.481 149.939V179.792H637.836V140.814C637.848 134.841 637.725 128.869 637.469 122.902H648.482L648.945 133.788H649.295C650.635 130.046 652.734 127.028 655.617 124.769C658.255 122.795 661.461 121.726 664.756 121.722C665.924 121.722 666.98 121.805 667.917 121.953L667.929 134.013ZM724.478 148.652C724.51 150.574 724.355 152.494 724.016 154.385H686.083C686.225 160.006 688.064 164.311 691.586 167.275C694.783 169.92 698.917 171.248 703.993 171.248C709.61 171.248 714.734 170.358 719.342 168.562L721.323 177.331C715.938 179.679 709.58 180.847 702.244 180.847C693.419 180.847 686.492 178.25 681.451 173.068C676.422 167.88 673.901 160.907 673.901 152.174C673.901 143.6 676.244 136.456 680.935 130.758C685.846 124.674 692.482 121.633 700.832 121.633C709.035 121.633 715.244 124.674 719.461 130.758C722.8 135.578 724.478 141.555 724.478 148.652ZM712.421 145.373C712.51 141.62 711.68 138.389 709.966 135.655C707.777 132.133 704.409 130.378 699.895 130.378C695.762 130.378 692.393 132.092 689.831 135.531C687.726 138.264 686.474 141.549 686.089 145.361L712.421 145.373Z" fill="white"/>
<path d="M268.135 72.9918C264.618 72.9918 261.575 72.8199 259.043 72.5293V34.3813C262.585 33.8343 266.164 33.5647 269.748 33.5749C284.248 33.5749 290.926 40.7077 290.926 52.3347C290.926 65.7464 283.039 72.9918 268.135 72.9918ZM270.258 38.4665C268.301 38.4665 266.634 38.585 265.252 38.8696V67.869C266 67.9876 267.435 68.041 269.451 68.041C278.952 68.041 284.361 62.6336 284.361 52.5067C284.361 43.4766 279.468 38.4665 270.258 38.4665ZM311.737 73.2823C303.565 73.2823 298.269 67.1813 298.269 58.8983C298.269 50.2654 303.677 44.111 312.2 44.111C320.254 44.111 325.669 49.9215 325.669 58.4417C325.669 67.1813 320.088 73.2823 311.737 73.2823ZM311.975 48.6527C307.485 48.6527 304.609 52.8505 304.609 58.7204C304.609 64.4776 307.544 68.6754 311.915 68.6754C316.286 68.6754 319.222 64.1871 319.222 58.6018C319.222 52.9098 316.345 48.6527 311.975 48.6527ZM372.272 44.6861L363.524 72.6479H357.825L354.201 60.5051C353.3 57.5348 352.55 54.521 351.953 51.475H351.835C351.378 54.5226 350.512 57.5761 349.593 60.5051L345.738 72.6479H339.979L331.747 44.6861H338.135L341.302 57.9792C342.049 61.1454 342.678 64.1337 343.2 66.956H343.318C343.775 64.6021 344.522 61.6612 345.619 58.0385L349.593 44.6921H354.658L358.459 57.7539C359.379 60.9201 360.126 64.027 360.707 66.9619H360.873C361.276 64.0863 361.911 61.0327 362.771 57.7539L366.169 44.6921L372.272 44.6861ZM404.476 72.6479H398.26V56.5918C398.26 51.6469 396.363 49.1685 392.62 49.1685C388.937 49.1685 386.405 52.3347 386.405 56.0167V72.6479H380.19V52.6786C380.19 50.2061 380.13 47.5558 379.958 44.6802H385.426L385.717 48.9966H385.889C387.561 46.0083 390.954 44.111 394.755 44.111C400.627 44.111 404.482 48.5994 404.482 55.904L404.476 72.6479ZM421.615 72.6479H415.394V31.8555H421.615V72.6479ZM444.277 73.2823C436.11 73.2823 430.808 67.1813 430.808 58.8983C430.808 50.2654 436.217 44.111 444.733 44.111C452.793 44.111 458.202 49.9215 458.202 58.4417C458.208 67.1813 452.621 73.2823 444.277 73.2823ZM444.508 48.6527C440.018 48.6527 437.142 52.8505 437.142 58.7204C437.142 64.4776 440.084 68.6754 444.443 68.6754C448.82 68.6754 451.749 64.1871 451.749 58.6018C451.755 52.9098 448.885 48.6527 444.508 48.6527ZM482.708 72.6479L482.257 69.4284H482.091C480.193 72.0194 477.423 73.2823 473.912 73.2823C468.901 73.2823 465.343 69.7723 465.343 65.0527C465.343 58.1512 471.327 54.5818 481.688 54.5818V54.066C481.688 50.384 479.736 48.5401 475.881 48.5401C473.124 48.5401 470.704 49.2338 468.575 50.6153L467.312 46.5301C469.897 44.9174 473.124 44.111 476.913 44.111C484.22 44.111 487.909 47.9649 487.909 55.6787V65.9776C487.909 68.7999 488.033 70.9878 488.312 72.6539L482.708 72.6479ZM481.854 58.7204C474.95 58.7204 471.487 60.3924 471.487 64.359C471.487 67.2939 473.272 68.7288 475.751 68.7288C478.912 68.7288 481.854 66.3156 481.854 63.0368V58.7204ZM518.09 72.6479L517.8 68.1596H517.628C515.843 71.551 512.842 73.2823 508.649 73.2823C501.905 73.2823 496.912 67.3532 496.912 59.0109C496.912 50.2654 502.089 44.1051 509.159 44.1051C512.901 44.1051 515.552 45.368 517.047 47.9056H517.171V31.8555H523.392V65.112C523.392 67.8157 523.458 70.3474 523.624 72.6479H518.09ZM517.171 56.1946C517.171 52.2813 514.579 48.9432 510.624 48.9432C506.015 48.9432 503.198 53.0284 503.198 58.7797C503.198 64.4183 506.122 68.2782 510.499 68.2782C514.407 68.2782 517.171 64.8808 517.171 60.8549V56.1946ZM562.837 73.2823C554.671 73.2823 549.375 67.1813 549.375 58.8983C549.375 50.2654 554.784 44.111 563.3 44.111C571.36 44.111 576.769 49.9215 576.769 58.4417C576.775 67.1813 571.194 73.2823 562.837 73.2823ZM563.069 48.6527C558.585 48.6527 555.709 52.8505 555.709 58.7204C555.709 64.4776 558.644 68.6754 563.009 68.6754C567.386 68.6754 570.316 64.1871 570.316 58.6018C570.328 52.9098 567.452 48.6527 563.069 48.6527ZM610.194 72.6479H603.973V56.5918C603.973 51.6469 602.075 49.1685 598.333 49.1685C594.65 49.1685 592.123 52.3347 592.123 56.0167V72.6479H585.902V52.6786C585.902 50.2061 585.843 47.5558 585.671 44.6802H591.139L591.429 48.9966H591.601C593.268 46.0083 596.666 44.1051 600.462 44.1051C606.333 44.1051 610.194 48.5934 610.194 55.8981V72.6479ZM652.012 49.3464H645.174V62.9241C645.174 66.3808 646.371 68.1062 648.791 68.1062C649.888 68.1062 650.808 67.9876 651.549 67.8157L651.721 72.5353C650.517 72.9977 648.904 73.229 646.899 73.229C642.001 73.229 639.071 70.5253 639.071 63.4459V49.3464H634.99V44.6861H639.071V39.5633L645.174 37.7194V44.6802H652.012V49.3464ZM684.915 72.6479H678.706V56.7104C678.706 51.7062 676.814 49.1745 673.066 49.1745C669.845 49.1745 666.844 51.3623 666.844 55.7914V72.6479H660.635V31.8555H666.844V48.6527H666.969C668.926 45.6051 671.761 44.1051 675.379 44.1051C681.297 44.1051 684.915 48.7061 684.915 56.0167V72.6479ZM718.625 60.1612H699.973C700.092 65.4559 703.597 68.4442 708.786 68.4442C711.544 68.4442 714.082 67.9817 716.324 67.122L717.291 71.4384C714.646 72.5886 711.532 73.1638 707.909 73.1638C699.161 73.1638 693.983 67.6378 693.983 59.0702C693.983 50.4967 699.285 44.0517 707.209 44.0517C714.355 44.0517 718.839 49.3464 718.839 57.3448C718.879 58.2887 718.807 59.2341 718.625 60.1612ZM712.926 55.7321C712.926 51.4157 710.749 48.3681 706.776 48.3681C703.205 48.3681 700.382 51.475 699.979 55.7321H712.926Z" fill="white"/>
</g>
<defs>
<linearGradient id="paint0_linear_1296_697" x1="586.897" y1="230.73" x2="586.897" y2="-624.368" gradientUnits="userSpaceOnUse">
<stop stop-color="#1A1A1A" stop-opacity="0.1"/>
<stop offset="0.123" stop-color="#212121" stop-opacity="0.151"/>
<stop offset="0.308" stop-color="#353535" stop-opacity="0.227"/>
<stop offset="0.532" stop-color="#575757" stop-opacity="0.318"/>
<stop offset="0.783" stop-color="#858585" stop-opacity="0.421"/>
<stop offset="1" stop-color="#B3B3B3" stop-opacity="0.51"/>
</linearGradient>
<clipPath id="clip0_1296_697">
<rect width="800" height="223" fill="white"/>
</clipPath>
</defs>
</svg>
