<svg width="800" height="223" viewBox="0 0 800 223" fill="none" xmlns="http://www.w3.org/2000/svg">
<g clip-path="url(#clip0_1296_683)">
<rect width="800" height="223" fill="white"/>
<g clip-path="url(#clip1_1296_683)">
<path d="M770.37 230.517H29.6296C13.037 230.517 0 217.48 0 200.888V23.1101C0 6.51751 13.037 -6.51953 29.6296 -6.51953H770.37C786.963 -6.51953 800 6.51751 800 23.1101V200.888C800 217.48 786.963 230.517 770.37 230.517Z" fill="black"/>
<path d="M770.37 -1.77879C784 -1.77879 795.259 9.48047 795.259 23.1101V200.888C795.259 214.517 784 225.777 770.37 225.777H29.6296C16 225.777 4.74074 214.517 4.74074 200.888V23.1101C4.74074 9.48047 16 -1.77879 29.6296 -1.77879H770.37ZM770.37 -6.51953H29.6296C13.037 -6.51953 0 7.1101 0 23.1101V200.888C0 217.48 13.037 230.517 29.6296 230.517H770.37C786.963 230.517 800 217.48 800 200.888V23.1101C800 7.1101 786.963 -6.51953 770.37 -6.51953Z" fill="#A6A6A6"/>
<path d="M280.888 53.9266C280.888 58.6674 279.702 62.8155 276.739 65.7785C273.184 69.3341 269.036 71.1118 263.702 71.1118C258.369 71.1118 254.221 69.3341 250.665 65.7785C247.11 62.2229 245.332 58.0748 245.332 52.7415C245.332 47.4081 247.11 43.26 250.665 39.7044C254.221 36.1489 258.369 34.3711 263.702 34.3711C266.073 34.3711 268.443 34.9637 270.814 36.1489C273.184 37.3341 274.962 38.5192 276.147 40.297L273.184 43.26C270.813 40.297 267.851 39.1118 263.702 39.1118C260.147 39.1118 256.591 40.297 254.221 43.26C251.258 45.6303 250.073 49.1859 250.073 53.3341C250.073 57.4822 251.258 61.0378 254.221 63.4081C257.184 65.7785 260.147 67.5563 263.702 67.5563C267.851 67.5563 270.814 66.3711 273.776 63.4081C275.554 61.6304 276.739 59.26 276.739 56.297H263.702V51.5563H280.888V53.9266ZM308.147 39.1118H292.147V50.3711H306.962V54.5192H292.147V65.7785H308.147V70.5192H287.406V34.9637H308.147V39.1118ZM327.702 70.5192H322.962V39.1118H312.888V34.9637H337.776V39.1118H327.702V70.5192ZM354.962 70.5192V34.9637H359.702V70.5192H354.962ZM379.851 70.5192H375.11V39.1118H365.036V34.9637H389.332V39.1118H379.258V70.5192H379.851ZM436.147 65.7785C432.591 69.3341 428.443 71.1118 423.11 71.1118C417.776 71.1118 413.628 69.3341 410.073 65.7785C406.517 62.2229 404.739 58.0748 404.739 52.7415C404.739 47.4081 406.517 43.26 410.073 39.7044C413.628 36.1489 417.776 34.3711 423.11 34.3711C428.443 34.3711 432.591 36.1489 436.147 39.7044C439.702 43.26 441.48 47.4081 441.48 52.7415C441.48 58.0748 439.702 62.2229 436.147 65.7785ZM413.628 62.8155C415.999 65.1859 419.554 66.9637 423.11 66.9637C426.665 66.9637 430.221 65.7785 432.591 62.8155C434.962 60.4452 436.739 56.8896 436.739 52.7415C436.739 48.5933 435.554 45.0378 432.591 42.6674C430.221 40.297 426.665 38.5192 423.11 38.5192C419.554 38.5192 415.999 39.7044 413.628 42.6674C411.258 45.0378 409.48 48.5933 409.48 52.7415C409.48 56.8896 410.665 60.4452 413.628 62.8155ZM447.999 70.5192V34.9637H453.332L470.517 62.8155V34.9637H475.258V70.5192H470.517L452.147 41.4822V70.5192H447.999Z" fill="white" stroke="white" stroke-width="1.18519" stroke-miterlimit="10"/>
<path d="M403.555 122.668C389.332 122.668 378.073 133.335 378.073 148.15C378.073 162.372 389.332 173.631 403.555 173.631C417.777 173.631 429.036 162.965 429.036 148.15C429.036 132.742 417.777 122.668 403.555 122.668ZM403.555 162.965C395.851 162.965 389.332 156.446 389.332 147.557C389.332 138.668 395.851 132.15 403.555 132.15C411.258 132.15 417.777 138.076 417.777 147.557C417.777 156.446 411.258 162.965 403.555 162.965ZM348.444 122.668C334.221 122.668 322.962 133.335 322.962 148.15C322.962 162.372 334.221 173.631 348.444 173.631C362.666 173.631 373.925 162.965 373.925 148.15C373.925 132.742 362.666 122.668 348.444 122.668ZM348.444 162.965C340.74 162.965 334.221 156.446 334.221 147.557C334.221 138.668 340.74 132.15 348.444 132.15C356.147 132.15 362.666 138.076 362.666 147.557C362.666 156.446 356.147 162.965 348.444 162.965ZM282.666 130.372V141.039H308.147C307.555 146.965 305.184 151.705 302.221 154.668C298.666 158.224 292.74 162.372 282.666 162.372C266.666 162.372 254.814 149.928 254.814 133.928C254.814 117.928 267.258 105.483 282.666 105.483C290.962 105.483 297.481 109.039 302.221 113.187L309.925 105.483C303.407 99.5571 295.11 94.8164 283.258 94.8164C261.925 94.8164 243.555 112.594 243.555 133.928C243.555 155.261 261.925 173.039 283.258 173.039C295.11 173.039 303.407 169.483 310.518 161.779C317.629 154.668 319.999 144.594 319.999 136.89C319.999 134.52 319.999 132.15 319.407 130.372H282.666ZM551.703 138.668C549.332 132.742 543.407 122.668 530.37 122.668C517.332 122.668 506.666 132.742 506.666 148.15C506.666 162.372 517.332 173.631 531.555 173.631C542.814 173.631 549.925 166.52 552.295 162.372L543.999 156.446C541.036 160.594 537.481 163.557 531.555 163.557C525.629 163.557 522.073 161.187 519.11 155.853L552.888 141.631L551.703 138.668ZM517.332 146.965C517.332 137.483 525.036 132.15 530.37 132.15C534.518 132.15 538.666 134.52 539.851 137.483L517.332 146.965ZM489.481 171.261H500.74V97.1868H489.481V171.261ZM471.703 128.002C468.74 125.039 463.999 122.076 458.073 122.076C445.629 122.076 433.777 133.335 433.777 147.557C433.777 161.779 445.036 172.446 458.073 172.446C463.999 172.446 468.74 169.483 471.11 166.52H471.703V170.076C471.703 179.557 466.37 184.89 458.073 184.89C451.555 184.89 446.814 180.15 445.629 176.002L436.147 180.15C439.11 186.668 446.221 194.965 458.666 194.965C471.703 194.965 482.37 187.261 482.37 168.89V123.853H471.703V128.002ZM458.666 162.965C450.962 162.965 444.444 156.446 444.444 147.557C444.444 138.668 450.962 132.15 458.666 132.15C466.37 132.15 472.295 138.668 472.295 147.557C472.295 156.446 466.37 162.965 458.666 162.965ZM603.258 97.1868H576.592V171.261H587.851V143.409H603.258C615.703 143.409 627.555 134.52 627.555 120.298C627.555 106.076 615.703 97.1868 603.258 97.1868ZM603.851 132.742H587.851V107.261H603.851C612.147 107.261 616.888 114.372 616.888 119.705C616.295 126.224 611.555 132.742 603.851 132.742ZM671.999 122.076C663.703 122.076 655.407 125.631 652.444 133.335L662.518 137.483C664.888 133.335 668.444 132.15 672.592 132.15C678.518 132.15 683.851 135.705 684.444 141.631V142.224C682.666 141.039 677.925 139.261 673.184 139.261C662.518 139.261 651.851 145.187 651.851 155.853C651.851 165.928 660.74 172.446 670.221 172.446C677.925 172.446 681.481 168.89 684.444 165.335H685.036V171.261H695.703V142.816C694.518 129.779 684.444 122.076 671.999 122.076ZM670.814 162.965C667.258 162.965 661.925 161.187 661.925 156.446C661.925 150.52 668.444 148.742 673.777 148.742C678.518 148.742 680.888 149.928 683.851 151.113C682.666 158.224 676.74 162.965 670.814 162.965ZM733.036 123.853L720.592 155.853H719.999L706.962 123.853H695.11L714.666 168.89L703.407 193.779H714.666L744.888 123.853H733.036ZM633.481 171.261H644.74V97.1868H633.481V171.261Z" fill="white"/>
<path d="M61.6282 37.9258C59.8504 39.7036 59.2578 42.6665 59.2578 46.2221V177.185C59.2578 180.741 60.443 183.704 62.2208 185.481L62.8134 186.074L136.295 112.592V111.407L61.6282 37.9258Z" fill="url(#paint0_linear_1296_683)"/>
<path d="M159.999 137.484L135.703 113.187V111.41L159.999 87.1133L160.592 87.7059L189.629 104.298C197.925 109.039 197.925 116.743 189.629 121.484L159.999 137.484Z" fill="url(#paint1_linear_1296_683)"/>
<path d="M160.592 136.889L135.703 112L61.6289 186.074C64.5919 189.037 68.74 189.037 74.0734 186.667L160.592 136.889Z" fill="url(#paint2_linear_1296_683)"/>
<path d="M160.592 87.1137L74.0734 37.9285C68.74 34.9655 64.5919 35.5581 61.6289 38.5211L135.703 112.003L160.592 87.1137Z" fill="url(#paint3_linear_1296_683)"/>
<path opacity="0.2" d="M159.999 136.297L74.0734 184.889C69.3326 187.852 65.1845 187.26 62.2215 184.889L61.6289 185.482L62.2215 186.075C65.1845 188.445 69.3326 189.038 74.0734 186.075L159.999 136.297Z" fill="black"/>
<path opacity="0.12" d="M61.6282 184.889C59.8504 183.111 59.2578 180.148 59.2578 176.593V177.185C59.2578 180.741 60.443 183.704 62.2208 185.481V184.889H61.6282ZM189.628 119.704L159.999 136.296L160.591 136.889L189.628 120.296C193.776 117.926 195.554 114.963 195.554 112C195.554 114.963 193.184 117.333 189.628 119.704Z" fill="black"/>
<path opacity="0.25" d="M74.0726 38.5193L189.628 104.297C193.184 106.667 195.554 109.038 195.554 112.001C195.554 109.038 193.776 106.075 189.628 103.704L74.0726 37.9267C65.7763 33.1859 59.2578 36.7415 59.2578 46.223V46.8155C59.2578 37.9267 65.7763 33.7785 74.0726 38.5193Z" fill="white"/>
</g>
</g>
<defs>
<linearGradient id="paint0_linear_1296_683" x1="129.184" y1="45.0962" x2="29.7289" y2="144.545" gradientUnits="userSpaceOnUse">
<stop stop-color="#00A0FF"/>
<stop offset="0.007" stop-color="#00A1FF"/>
<stop offset="0.26" stop-color="#00BEFF"/>
<stop offset="0.512" stop-color="#00D2FF"/>
<stop offset="0.76" stop-color="#00DFFF"/>
<stop offset="1" stop-color="#00E3FF"/>
</linearGradient>
<linearGradient id="paint1_linear_1296_683" x1="200.497" y1="112.008" x2="57.1076" y2="112.008" gradientUnits="userSpaceOnUse">
<stop stop-color="#FFE000"/>
<stop offset="0.409" stop-color="#FFBD00"/>
<stop offset="0.775" stop-color="#FFA500"/>
<stop offset="1" stop-color="#FF9C00"/>
</linearGradient>
<linearGradient id="paint2_linear_1296_683" x1="147.122" y1="125.606" x2="12.26" y2="260.468" gradientUnits="userSpaceOnUse">
<stop stop-color="#FF3A44"/>
<stop offset="1" stop-color="#C31162"/>
</linearGradient>
<linearGradient id="paint3_linear_1296_683" x1="43.2408" y1="-5.47301" x2="103.466" y2="54.7522" gradientUnits="userSpaceOnUse">
<stop stop-color="#32A071"/>
<stop offset="0.069" stop-color="#2DA771"/>
<stop offset="0.476" stop-color="#15CF74"/>
<stop offset="0.801" stop-color="#06E775"/>
<stop offset="1" stop-color="#00F076"/>
</linearGradient>
<clipPath id="clip0_1296_683">
<rect width="800" height="223" fill="white"/>
</clipPath>
<clipPath id="clip1_1296_683">
<rect width="800" height="800" fill="white" transform="translate(0 -288)"/>
</clipPath>
</defs>
</svg>
